<svg xmlns="http://www.w3.org/2000/svg" viewBox="0 0 200 200" role="img" aria-labelledby="t d"><title id="t">Five Falcons logo</title><desc id="d">Falcon wings above a semi truck</desc><rect width="200" height="200" rx="28" fill="#fff"/><path fill="#0b1f3a" d="M96 36 39 58l35 3-44 20 52-8-36 30 48-22-22 36 32-28 7-25z"/><path fill="#0e8f9a" d="m104 36 57 22-35 3 44 20-52-8 36 30-48-22 22 36-32-28-7-25z"/><path fill="#0b1f3a" d="M84 55c8-17 29-18 39-5l-15 1 10 8-18 5-9 18-5-14-13-3z"/><path fill="#26384b" d="M43 118h77v29H43z"/><path fill="#0b1f3a" d="M120 112h28l17 17v18h-45z"/><path fill="#86e8f0" d="M132 118h13l9 10h-22z"/><path fill="#d8e0e7" d="M30 147h140v8H30z"/><g fill="#0b1f3a"><circle cx="58" cy="154" r="12"/><circle cx="105" cy="154" r="12"/><circle cx="148" cy="154" r="12"/></g></svg>